PathFileType	4	(X/Y/Z)	/Users/itak/Documents/Research/Walk-IL/dataset/trc/00542_00009.trc
DataRate	CameraRate	NumFrames	NumMarkers	Units	OrigDataRate	OrigDataStartFrame	OrigNumFrames
100.000000	100.000000	4	53	mm	100.000000	341	910
Frame#	Time	RPSI			LPSI			L3			STRN			T10			C7			CLAV			RBAK			LBAK			LSHO			LUPA			LAEL			LAOL			LWTS			LWPS			LFRA			LIFD			LHPS			LHTS			RSHO			RUPA			RAEL			RAOL			RWTS			RWPS			RFRA			RIFD			RHTS			RHPS			RBHD			LFHD			RFHD			LBHD			LHIP			RHIP			RASI			LASI			LKNE			LTHI			LANK			LTIP			LTOE			LMT1			LMT5			LHEE			RKNE			RTHI			RANK			RTIP			RTOE			RMT1			RMT5			RHEE			
		X1	Y1	Z1	X2	Y2	Z2	X3	Y3	Z3	X4	Y4	Z4	X5	Y5	Z5	X6	Y6	Z6	X7	Y7	Z7	X8	Y8	Z8	X9	Y9	Z9	X10	Y10	Z10	X11	Y11	Z11	X12	Y12	Z12	X13	Y13	Z13	X14	Y14	Z14	X15	Y15	Z15	X16	Y16	Z16	X17	Y17	Z17	X18	Y18	Z18	X19	Y19	Z19	X20	Y20	Z20	X21	Y21	Z21	X22	Y22	Z22	X23	Y23	Z23	X24	Y24	Z24	X25	Y25	Z25	X26	Y26	Z26	X27	Y27	Z27	X28	Y28	Z28	X29	Y29	Z29	X30	Y30	Z30	X31	Y31	Z31	X32	Y32	Z32	X33	Y33	Z33	X34	Y34	Z34	X35	Y35	Z35	X36	Y36	Z36	X37	Y37	Z37	X38	Y38	Z38	X39	Y39	Z39	X40	Y40	Z40	X41	Y41	Z41	X42	Y42	Z42	X43	Y43	Z43	X44	Y44	Z44	X45	Y45	Z45	X46	Y46	Z46	X47	Y47	Z47	X48	Y48	Z48	X49	Y49	Z49	X50	Y50	Z50	X51	Y51	Z51	X52	Y52	Z52	X53	Y53	Z53	

342	3.41	-545.897216796875	1017.061767578125	493.9437561035156	-548.8780517578125	1019.418212890625	360.5338745117188	-539.1979370117188	1115.755737304688	426.3001708984375	-300.4653625488281	1291.432373046875	406.5114440917969	-545.2137451171875	1241.173706054688	427.3455810546875	-483.1277465820312	1511.729370117188	437.2736511230469	-315.3873291015625	1403.110961914062	409.0493774414062	-549.8939208984375	1390.119995117188	530.7064819335938	-528.4241943359375	1461.34130859375	348.3609924316406	-436.4301452636719	1481.919311523438	258.7008666992188	-455.5963134765625	1357.264770507812	178.9757995605469	-430.8040161132812	1137.798461914062	152.6839447021484	-517.170654296875	1122.807983398438	205.1022033691406	-294.7843017578125	921.80517578125	204.2497100830078	-338.6329040527344	884.8880615234375	137.9203186035156	-395.4241333007812	1057.0419921875	147.9975891113281	-259.2167663574219	755.1885375976562	209.1991271972656	-315.9889221191406	828.9041137695312	148.8847351074219	-263.2584533691406	849.0455932617188	187.3882141113281	-408.484619140625	1468.022705078125	584.8927001953125	-421.5305786132812	1404.61181640625	655.1146240234375	-433.54150390625	1115.637817382812	703.251953125	-490.7250366210938	1099.563232421875	681.0252075195312	-307.4656066894531	893.4708862304688	655.8001098632812	-346.2894592285156	874.5397338867188	725.7001953125	-423.7804260253906	1059.877807617188	710.3912963867188	-297.8091430664062	720.3402709960938	660.8485107421875	-277.4259338378906	802.6557006835938	670.212890625	-328.8766784667969	800.5880126953125	723.8682250976562	-388.5688781738281	1687.836547851562	493.2933959960938	-242.7760620117188	1700.374755859375	345.4311218261719	-248.6466827392578	1699.4609375	489.6459655761719	-375.0316772460938	1686.583251953125	327.9696960449219	-425.4967956542969	941.9666748046875	224.5387573242188	-418.8868103027344	939.6779174804688	610.7233276367188	-334.8507995605469	969.2677612304688	550.0228881835938	-346.4743957519531	965.3262329101562	273.8695678710938	-332.7259216308594	500.3984680175781	230.9736022949219	-358.7123107910156	669.6546020507812	215.33984375	-609.4682006835938	99.30983734130859	222.0303039550781	-497.6744384765625	300.2648620605469	222.4150238037109	-403.267578125	54.55069351196289	231.0364990234375	-462.0112609863281	63.13820266723633	280.7401428222656	-500.5228881835938	68.09429931640625	182.4819641113281	-659.6444702148438	118.4968566894531	290.5549621582031	-396.5601196289062	494.9594421386719	533.332763671875	-382.3587036132812	784.2925415039062	593.8880615234375	-499.1533203125	34.19087219238281	472.9520874023438	-402.9877319335938	352.1378784179688	508.1819152832031	-278.5972595214844	43.18144607543945	437.9859008789062	-340.9674072265625	47.66944122314453	396.4565734863281	-366.5914611816406	34.79431915283203	498.8326110839844	-551.849609375	34.37143325805664	413.3507080078125	
343	3.42	-543.2281494140625	1017.080505371094	494.2589111328125	-546.1298828125	1019.467712402344	360.8873901367188	-536.0575561523438	1115.846923828125	426.8556823730469	-297.3225402832031	1291.271606445312	407.0525512695312	-542.0445556640625	1241.235717773438	428.0974426269531	-479.692626953125	1511.72998046875	438.3038635253906	-312.1450805664062	1402.961791992188	409.6521911621094	-546.4239501953125	1390.096801757812	531.7354736328125	-525.21728515625	1461.439819335938	349.4755249023438	-433.4062194824219	1481.964111328125	259.5932006835938	-453.14990234375	1357.394653320312	179.7857971191406	-429.4936828613281	1137.870239257812	153.11767578125	-515.5655517578125	1123.246459960938	206.2114562988281	-294.4154052734375	920.9415893554688	203.2928924560547	-338.9211120605469	884.3727416992188	137.0915985107422	-394.6021118164062	1056.9130859375	148.0327758789062	-259.7669677734375	754.1278076171875	207.574462890625	-316.4454040527344	828.3511962890625	147.8286895751953	-263.4817199707031	848.0289306640625	186.0682220458984	-404.8270263671875	1467.816772460938	585.7360229492188	-417.8222045898438	1404.35693359375	655.915771484375	-429.9521179199219	1115.376342773438	703.9623413085938	-487.2022705078125	1099.346801757812	681.8380737304688	-304.0649719238281	893.1690673828125	656.1495971679688	-342.7670593261719	874.224853515625	726.0714111328125	-420.2183227539062	1059.614990234375	711.0709838867188	-294.4173278808594	720.0641479492188	661.0078125	-274.0248107910156	802.334228515625	670.409912109375	-325.3901672363281	800.2708129882812	724.1778564453125	-384.8678283691406	1687.705688476562	494.2269592285156	-239.4207305908203	1700.194091796875	346.0089721679688	-244.9313659667969	1699.274658203125	490.2255249023438	-371.6949768066406	1686.529663085938	328.830810546875	-422.6079711914062	942.1051635742188	225.1179962158203	-416.2714233398438	939.4207763671875	611.0460815429688	-332.2281494140625	968.9296875	550.6165771484375	-343.616455078125	965.53125	274.4672241210938	-325.725830078125	501.2651672363281	232.0508575439453	-353.67236328125	670.1974487304688	215.7550354003906	-593.2810668945312	94.232666015625	220.7922973632812	-486.318603515625	297.7038879394531	222.1909027099609	-385.979248046875	54.99554824829102	230.7760009765625	-445.3653869628906	61.61776351928711	280.255615234375	-483.3006286621094	66.08335113525391	181.6987915039062	-644.3472900390625	111.8752746582031	289.0619201660156	-395.6083068847656	494.7477722167969	533.6669921875	-380.3191833496094	783.9927368164062	594.1513671875	-499.1394958496094	34.28398895263672	472.8980102539062	-402.3946228027344	351.9656982421875	508.2759094238281	-278.564697265625	43.03074645996094	437.9531555175781	-340.8754577636719	47.59479904174805	396.4032592773438	-366.5728149414062	34.79763031005859	498.85595703125	-551.7737426757812	34.47061920166016	413.2781066894531	
344	3.43	-540.6350708007812	1017.1015625	494.4770812988281	-543.40625	1019.520690917969	361.1884765625	-532.9581298828125	1115.928100585938	427.3589477539062	-294.1804504394531	1291.081665039062	407.55419921875	-538.8578491210938	1241.284912109375	428.7777709960938	-476.2450866699219	1511.712280273438	439.2801513671875	-308.8989868164062	1402.787963867188	410.2213439941406	-542.9625244140625	1390.05224609375	532.703857421875	-521.990966796875	1461.5283203125	350.531982421875	-430.3413391113281	1481.995971679688	260.4343872070312	-450.6575317382812	1357.509765625	180.5491485595703	-428.1652221679688	1137.920654296875	153.5216522216797	-513.9003295898438	1123.678955078125	207.2669982910156	-294.2426452636719	919.8895874023438	202.229736328125	-339.4166259765625	883.7530517578125	136.1420593261719	-393.806640625	1056.730224609375	148.0136871337891	-260.6959533691406	752.8571166992188	205.7685699462891	-317.1679077148438	827.6895141601562	146.5973205566406	-264.0127563476562	846.8001098632812	184.6251220703125	-401.1755981445312	1467.584350585938	586.5303955078125	-414.1257629394531	1404.066650390625	656.6644287109375	-426.4149169921875	1115.085327148438	704.624755859375	-483.7117309570312	1099.095703125	682.5806274414062	-300.6921691894531	892.8395385742188	656.4445190429688	-339.2799072265625	873.86669921875	726.3781127929688	-416.6773071289062	1059.317138671875	711.6882934570312	-291.0668334960938	719.7544555664062	661.1111450195312	-270.6763916015625	801.9754638671875	670.541748046875	-321.958740234375	799.9122314453125	724.4252319335938	-381.1712951660156	1687.546997070312	495.1264038085938	-236.0657501220703	1700.015258789062	346.5641174316406	-241.2187652587891	1699.074829101562	490.7870483398438	-368.3607177734375	1686.467895507812	329.6706848144531	-419.7572021484375	942.2657470703125	225.6590728759766	-413.6834106445312	939.1365356445312	611.3240966796875	-329.6332397460938	968.5707397460938	551.1559448242188	-340.7856750488281	965.7369384765625	275.0030212402344	-318.7443542480469	502.1709594726562	233.1511840820312	-348.6549072265625	670.748291015625	216.1469268798828	-576.866455078125	89.33052062988281	219.5901794433594	-474.7954711914062	295.2268981933594	221.9448394775391	-368.6543884277344	55.4902458190918	230.7865753173828	-428.5926818847656	60.30981826782227	279.9214477539062	-465.9209594726562	64.15836334228516	181.0931854248047	-628.8174438476562	105.5069808959961	287.5210266113281	-394.6750793457031	494.5175476074219	533.9450073242188	-378.2629089355469	783.6719360351562	594.3228759765625	-499.1268615722656	34.39256286621094	472.8249816894531	-401.8211975097656	351.7835388183594	508.3181762695312	-278.5189819335938	42.83280181884766	437.8862609863281	-340.7816772460938	47.47385406494141	396.3226928710938	-366.5461120605469	34.8111572265625	498.8656005859375	-551.7005615234375	34.56600952148438	413.2038879394531	
345	3.44	-538.11572265625	1017.129150390625	494.5936584472656	-540.71044921875	1019.580261230469	361.4441223144531	-529.9024658203125	1116.002807617188	427.8027038574219	-291.0359802246094	1290.867919921875	408.0179443359375	-535.6607055664062	1241.325073242188	429.3941040039062	-472.7874450683594	1511.680541992188	440.2027282714844	-305.64697265625	1402.591064453125	410.7571716308594	-539.511474609375	1389.9931640625	533.6129760742188	-518.7449340820312	1461.61083984375	351.5283813476562	-427.2408447265625	1482.018432617188	261.2239685058594	-448.1190795898438	1357.614379882812	181.2686004638672	-426.8046875	1137.954223632812	153.8930816650391	-512.1680908203125	1124.107177734375	208.2608642578125	-294.2578430175781	918.6640625	201.0692443847656	-340.09912109375	883.0531005859375	135.0801086425781	-393.0254516601562	1056.49951171875	147.9369964599609	-261.9976196289062	751.3910522460938	203.7989044189453	-318.1695861816406	826.9242553710938	145.2136383056641	-264.8369445800781	845.3768310546875	183.0698699951172	-397.5335083007812	1467.328979492188	587.2763061523438	-410.441162109375	1403.744750976562	657.3631591796875	-422.9209594726562	1114.767578125	705.2325439453125	-480.2507629394531	1098.813232421875	683.249267578125	-297.3498229980469	892.4837646484375	656.6882934570312	-335.8294677734375	873.4697875976562	726.6246948242188	-413.1565856933594	1058.987426757812	712.2413330078125	-287.7640686035156	719.4114990234375	661.1681518554688	-267.3756713867188	801.587890625	670.6192626953125	-318.5802307128906	799.51513671875	724.6134033203125	-377.4713439941406	1687.368774414062	495.9903564453125	-232.7034454345703	1699.835693359375	347.0961303710938	-237.5049743652344	1698.857299804688	491.3297424316406	-365.0242919921875	1686.396240234375	330.4906616210938	-416.9356079101562	942.4481811523438	226.1503448486328	-411.1364135742188	938.8323364257812	611.5631713867188	-327.0568542480469	968.1980590820312	551.6353759765625	-337.9772033691406	965.9464111328125	275.47607421875	-311.7823486328125	503.1243896484375	234.2581634521484	-343.6472473144531	671.3131713867188	216.5181121826172	-560.2648315429688	84.64841461181641	218.4509582519531	-463.1213684082031	292.8597412109375	221.6890106201172	-351.3298034667969	56.0369873046875	231.0409545898438	-411.7344970703125	59.21751022338867	279.73486328125	-448.4314575195312	62.35112380981445	180.6680145263672	-613.080322265625	99.43284606933594	285.984619140625	-393.7626647949219	494.2693176269531	534.1664428710938	-376.189453125	783.3378295898438	594.4049072265625	-499.1143493652344	34.51076126098633	472.7359619140625	-401.2755432128906	351.5984191894531	508.3207092285156	-278.4594116210938	42.59666442871094	437.7846374511719	-340.6868591308594	47.31488418579102	396.220458984375	-366.5120849609375	34.83318328857422	498.8617248535156	-551.6376953125	34.66707229614258	413.14892578125	
